<svg width="688" height="181" viewBox="0 0 688 181" fill="none" xmlns="http://www.w3.org/2000/svg">
<rect width="688" height="181" fill="black" fill-opacity="0"/>
<rect width="65" height="94" fill="black" fill-opacity="0" transform="translate(52 42)"/>
<g filter="url(#filter0_d)">
<path d="M52 136V42H99.7941L117 60.0404V136H52Z" fill="#F6F6F6"/>
<path d="M117 60.0404V136H52V42H99.7941M117 60.0404L99.7941 42M117 60.0404H99.7941V42" stroke="#455A64" stroke-opacity="0.7" stroke-width="2"/>
</g>
<path d="M99.8438 132H97.8613V124.604H99.8438V132ZM97.7451 122.689C97.7451 122.393 97.8431 122.149 98.0391 121.958C98.2396 121.767 98.5107 121.671 98.8525 121.671C99.1898 121.671 99.4587 121.767 99.6592 121.958C99.8597 122.149 99.96 122.393 99.96 122.689C99.96 122.99 99.8574 123.236 99.6523 123.428C99.4518 123.619 99.1852 123.715 98.8525 123.715C98.5199 123.715 98.251 123.619 98.0459 123.428C97.8454 123.236 97.7451 122.99 97.7451 122.689ZM101.19 128.247C101.19 127.112 101.459 126.199 101.997 125.506C102.539 124.813 103.269 124.467 104.185 124.467C104.996 124.467 105.627 124.745 106.078 125.301L106.16 124.604H107.951V131.754C107.951 132.401 107.803 132.964 107.507 133.442C107.215 133.921 106.803 134.285 106.27 134.536C105.736 134.787 105.112 134.912 104.396 134.912C103.854 134.912 103.326 134.803 102.811 134.584C102.296 134.37 101.906 134.092 101.642 133.75L102.517 132.547C103.009 133.098 103.606 133.374 104.308 133.374C104.832 133.374 105.24 133.233 105.531 132.95C105.823 132.672 105.969 132.276 105.969 131.761V131.364C105.513 131.879 104.914 132.137 104.171 132.137C103.282 132.137 102.562 131.79 102.011 131.098C101.464 130.4 101.19 129.478 101.19 128.329V128.247ZM103.166 128.391C103.166 129.061 103.3 129.587 103.569 129.97C103.838 130.348 104.207 130.537 104.677 130.537C105.278 130.537 105.709 130.312 105.969 129.86V126.75C105.704 126.299 105.278 126.073 104.69 126.073C104.216 126.073 103.843 126.267 103.569 126.654C103.3 127.042 103.166 127.62 103.166 128.391ZM112.552 130.544C112.916 130.544 113.213 130.444 113.44 130.243C113.668 130.043 113.787 129.776 113.796 129.443H115.648C115.644 129.945 115.507 130.405 115.238 130.824C114.969 131.239 114.6 131.562 114.131 131.795C113.666 132.023 113.151 132.137 112.586 132.137C111.529 132.137 110.695 131.802 110.084 131.132C109.473 130.457 109.168 129.528 109.168 128.343V128.213C109.168 127.074 109.471 126.164 110.077 125.485C110.683 124.806 111.515 124.467 112.572 124.467C113.497 124.467 114.238 124.731 114.794 125.26C115.354 125.784 115.639 126.483 115.648 127.358H113.796C113.787 126.976 113.668 126.666 113.44 126.429C113.213 126.187 112.912 126.066 112.538 126.066C112.078 126.066 111.729 126.235 111.492 126.572C111.26 126.905 111.144 127.447 111.144 128.199V128.404C111.144 129.165 111.26 129.712 111.492 130.045C111.725 130.378 112.078 130.544 112.552 130.544Z" fill="#607D8B"/>
<rect width="65" height="94" fill="black" fill-opacity="0" transform="translate(149 42)"/>
<g filter="url(#filter1_d)">
<path d="M149 136V42H196.794L214 60.0404V136H149Z" fill="#F6F6F6"/>
<path d="M214 60.0404V136H149V42H196.794M214 60.0404L196.794 42M214 60.0404H196.794V42" stroke="#455A64" stroke-opacity="0.7" stroke-width="2"/>
</g>
<path d="M196.844 132H194.861V124.604H196.844V132ZM194.745 122.689C194.745 122.393 194.843 122.149 195.039 121.958C195.24 121.767 195.511 121.671 195.853 121.671C196.19 121.671 196.459 121.767 196.659 121.958C196.86 122.149 196.96 122.393 196.96 122.689C196.96 122.99 196.857 123.236 196.652 123.428C196.452 123.619 196.185 123.715 195.853 123.715C195.52 123.715 195.251 123.619 195.046 123.428C194.845 123.236 194.745 122.99 194.745 122.689ZM198.19 128.247C198.19 127.112 198.459 126.199 198.997 125.506C199.539 124.813 200.269 124.467 201.185 124.467C201.996 124.467 202.627 124.745 203.078 125.301L203.16 124.604H204.951V131.754C204.951 132.401 204.803 132.964 204.507 133.442C204.215 133.921 203.803 134.285 203.27 134.536C202.736 134.787 202.112 134.912 201.396 134.912C200.854 134.912 200.326 134.803 199.811 134.584C199.296 134.37 198.906 134.092 198.642 133.75L199.517 132.547C200.009 133.098 200.606 133.374 201.308 133.374C201.832 133.374 202.24 133.233 202.531 132.95C202.823 132.672 202.969 132.276 202.969 131.761V131.364C202.513 131.879 201.914 132.137 201.171 132.137C200.282 132.137 199.562 131.79 199.011 131.098C198.464 130.4 198.19 129.478 198.19 128.329V128.247ZM200.166 128.391C200.166 129.061 200.3 129.587 200.569 129.97C200.838 130.348 201.207 130.537 201.677 130.537C202.278 130.537 202.709 130.312 202.969 129.86V126.75C202.704 126.299 202.278 126.073 201.69 126.073C201.216 126.073 200.843 126.267 200.569 126.654C200.3 127.042 200.166 127.62 200.166 128.391ZM209.552 130.544C209.916 130.544 210.213 130.444 210.44 130.243C210.668 130.043 210.787 129.776 210.796 129.443H212.648C212.644 129.945 212.507 130.405 212.238 130.824C211.969 131.239 211.6 131.562 211.131 131.795C210.666 132.023 210.151 132.137 209.586 132.137C208.529 132.137 207.695 131.802 207.084 131.132C206.473 130.457 206.168 129.528 206.168 128.343V128.213C206.168 127.074 206.471 126.164 207.077 125.485C207.683 124.806 208.515 124.467 209.572 124.467C210.497 124.467 211.238 124.731 211.794 125.26C212.354 125.784 212.639 126.483 212.648 127.358H210.796C210.787 126.976 210.668 126.666 210.44 126.429C210.213 126.187 209.912 126.066 209.538 126.066C209.078 126.066 208.729 126.235 208.492 126.572C208.26 126.905 208.144 127.447 208.144 128.199V128.404C208.144 129.165 208.26 129.712 208.492 130.045C208.725 130.378 209.078 130.544 209.552 130.544Z" fill="#607D8B"/>
<rect width="65" height="94" fill="black" fill-opacity="0" transform="translate(246 42)"/>
<g filter="url(#filter2_d)">
<path d="M246 136V42H293.794L311 60.0404V136H246Z" fill="#F6F6F6"/>
<path d="M311 60.0404V136H246V42H293.794M311 60.0404L293.794 42M311 60.0404H293.794V42" stroke="#455A64" stroke-opacity="0.7" stroke-width="2"/>
</g>
<path d="M293.844 132H291.861V124.604H293.844V132ZM291.745 122.689C291.745 122.393 291.843 122.149 292.039 121.958C292.24 121.767 292.511 121.671 292.853 121.671C293.19 121.671 293.459 121.767 293.659 121.958C293.86 122.149 293.96 122.393 293.96 122.689C293.96 122.99 293.857 123.236 293.652 123.428C293.452 123.619 293.185 123.715 292.853 123.715C292.52 123.715 292.251 123.619 292.046 123.428C291.845 123.236 291.745 122.99 291.745 122.689ZM295.19 128.247C295.19 127.112 295.459 126.199 295.997 125.506C296.539 124.813 297.269 124.467 298.185 124.467C298.996 124.467 299.627 124.745 300.078 125.301L300.16 124.604H301.951V131.754C301.951 132.401 301.803 132.964 301.507 133.442C301.215 133.921 300.803 134.285 300.27 134.536C299.736 134.787 299.112 134.912 298.396 134.912C297.854 134.912 297.326 134.803 296.811 134.584C296.296 134.37 295.906 134.092 295.642 133.75L296.517 132.547C297.009 133.098 297.606 133.374 298.308 133.374C298.832 133.374 299.24 133.233 299.531 132.95C299.823 132.672 299.969 132.276 299.969 131.761V131.364C299.513 131.879 298.914 132.137 298.171 132.137C297.282 132.137 296.562 131.79 296.011 131.098C295.464 130.4 295.19 129.478 295.19 128.329V128.247ZM297.166 128.391C297.166 129.061 297.3 129.587 297.569 129.97C297.838 130.348 298.207 130.537 298.677 130.537C299.278 130.537 299.709 130.312 299.969 129.86V126.75C299.704 126.299 299.278 126.073 298.69 126.073C298.216 126.073 297.843 126.267 297.569 126.654C297.3 127.042 297.166 127.62 297.166 128.391ZM306.552 130.544C306.916 130.544 307.213 130.444 307.44 130.243C307.668 130.043 307.787 129.776 307.796 129.443H309.648C309.644 129.945 309.507 130.405 309.238 130.824C308.969 131.239 308.6 131.562 308.131 131.795C307.666 132.023 307.151 132.137 306.586 132.137C305.529 132.137 304.695 131.802 304.084 131.132C303.473 130.457 303.168 129.528 303.168 128.343V128.213C303.168 127.074 303.471 126.164 304.077 125.485C304.683 124.806 305.515 124.467 306.572 124.467C307.497 124.467 308.238 124.731 308.794 125.26C309.354 125.784 309.639 126.483 309.648 127.358H307.796C307.787 126.976 307.668 126.666 307.44 126.429C307.213 126.187 306.912 126.066 306.538 126.066C306.078 126.066 305.729 126.235 305.492 126.572C305.26 126.905 305.144 127.447 305.144 128.199V128.404C305.144 129.165 305.26 129.712 305.492 130.045C305.725 130.378 306.078 130.544 306.552 130.544Z" fill="#607D8B"/>
<g filter="url(#filter3_dd)">
<path d="M538 158V21H607.853L633 47.2929V158H538Z" fill="white"/>
<path d="M633 47.2929V158H538V21H607.853M633 47.2929L607.853 21M633 47.2929H607.853V21" stroke="#455A64" stroke-width="2"/>
</g>
<path d="M600.875 148H597.477V135.32H600.875V148ZM597.277 132.039C597.277 131.531 597.445 131.113 597.781 130.785C598.125 130.457 598.59 130.293 599.176 130.293C599.754 130.293 600.215 130.457 600.559 130.785C600.902 131.113 601.074 131.531 601.074 132.039C601.074 132.555 600.898 132.977 600.547 133.305C600.203 133.633 599.746 133.797 599.176 133.797C598.605 133.797 598.145 133.633 597.793 133.305C597.449 132.977 597.277 132.555 597.277 132.039ZM603.184 141.566C603.184 139.621 603.645 138.055 604.566 136.867C605.496 135.68 606.746 135.086 608.316 135.086C609.707 135.086 610.789 135.562 611.562 136.516L611.703 135.32H614.773V147.578C614.773 148.688 614.52 149.652 614.012 150.473C613.512 151.293 612.805 151.918 611.891 152.348C610.977 152.777 609.906 152.992 608.68 152.992C607.75 152.992 606.844 152.805 605.961 152.43C605.078 152.062 604.41 151.586 603.957 151L605.457 148.938C606.301 149.883 607.324 150.355 608.527 150.355C609.426 150.355 610.125 150.113 610.625 149.629C611.125 149.152 611.375 148.473 611.375 147.59V146.91C610.594 147.793 609.566 148.234 608.293 148.234C606.77 148.234 605.535 147.641 604.59 146.453C603.652 145.258 603.184 143.676 603.184 141.707V141.566ZM606.57 141.812C606.57 142.961 606.801 143.863 607.262 144.52C607.723 145.168 608.355 145.492 609.16 145.492C610.191 145.492 610.93 145.105 611.375 144.332V139C610.922 138.227 610.191 137.84 609.184 137.84C608.371 137.84 607.73 138.172 607.262 138.836C606.801 139.5 606.57 140.492 606.57 141.812ZM622.66 145.504C623.285 145.504 623.793 145.332 624.184 144.988C624.574 144.645 624.777 144.188 624.793 143.617H627.969C627.961 144.477 627.727 145.266 627.266 145.984C626.805 146.695 626.172 147.25 625.367 147.648C624.57 148.039 623.688 148.234 622.719 148.234C620.906 148.234 619.477 147.66 618.43 146.512C617.383 145.355 616.859 143.762 616.859 141.73V141.508C616.859 139.555 617.379 137.996 618.418 136.832C619.457 135.668 620.883 135.086 622.695 135.086C624.281 135.086 625.551 135.539 626.504 136.445C627.465 137.344 627.953 138.543 627.969 140.043H624.793C624.777 139.387 624.574 138.855 624.184 138.449C623.793 138.035 623.277 137.828 622.637 137.828C621.848 137.828 621.25 138.117 620.844 138.695C620.445 139.266 620.246 140.195 620.246 141.484V141.836C620.246 143.141 620.445 144.078 620.844 144.648C621.242 145.219 621.848 145.504 622.66 145.504Z" fill="#455A64"/>
<g filter="url(#filter4_d)">
<path d="M373 104.5V83H448.5V64.5L476.5 94L448.5 125V104.5H373Z" fill="url(#paint0_linear)"/>
<path d="M373 104.5V83H448.5V64.5L476.5 94L448.5 125V104.5H373Z" stroke="#455A64" stroke-opacity="0.7" stroke-width="2"/>
</g>
<rect width="13" height="12" fill="black" fill-opacity="0" transform="translate(176 84)"/>
<mask id="mask0" mask-type="alpha" maskUnits="userSpaceOnUse" x="174" y="83" width="16" height="15">
<path d="M189 84H176L187.96 96L189 84Z" fill="#C4C4C4" stroke="black"/>
</mask>
<g mask="url(#mask0)">
<ellipse cx="176.26" cy="83.7447" rx="10.4" ry="10.2128" fill="#F4511E"/>
</g>
<rect width="26" height="23" fill="black" fill-opacity="0" transform="translate(71 73)"/>
<mask id="mask1" mask-type="alpha" maskUnits="userSpaceOnUse" x="70" y="72" width="29" height="25">
<path d="M84.6701 73V83.4302L85.7423 85.0349L97 96H71V73H84.6701Z" fill="#C4C4C4" stroke="black"/>
</mask>
<g mask="url(#mask1)">
<ellipse cx="84.9382" cy="83.1628" rx="10.7217" ry="10.6977" fill="#F4511E"/>
</g>
<rect width="13" height="14" fill="black" fill-opacity="0" transform="translate(274 68)"/>
<mask id="mask2" mask-type="alpha" maskUnits="userSpaceOnUse" x="273" y="67" width="15" height="16">
<path d="M274 70.4561V82H276.208H287L284.547 68.9825L274 68V70.4561Z" fill="#C4C4C4" stroke="black"/>
</mask>
<g mask="url(#mask2)">
<ellipse cx="274.245" cy="81.7544" rx="9.81132" ry="9.82456" fill="#F4511E"/>
</g>
<circle cx="586" cy="90" r="16" fill="#F4511E"/>
<defs>
<filter id="filter0_d" x="47" y="41" width="75" height="104" filterUnits="userSpaceOnUse" color-interpolation-filters="sRGB">
<feFlood flood-opacity="0" result="BackgroundImageFix"/>
<feColorMatrix in="SourceAlpha" type="matrix" values="0 0 0 0 0 0 0 0 0 0 0 0 0 0 0 0 0 0 127 0"/>
<feOffset dy="4"/>
<feGaussianBlur stdDeviation="2"/>
<feColorMatrix type="matrix" values="0 0 0 0 0 0 0 0 0 0 0 0 0 0 0 0 0 0 0.25 0"/>
<feBlend mode="normal" in2="BackgroundImageFix" result="effect1_dropShadow"/>
<feBlend mode="normal" in="SourceGraphic" in2="effect1_dropShadow" result="shape"/>
</filter>
<filter id="filter1_d" x="144" y="41" width="75" height="104" filterUnits="userSpaceOnUse" color-interpolation-filters="sRGB">
<feFlood flood-opacity="0" result="BackgroundImageFix"/>
<feColorMatrix in="SourceAlpha" type="matrix" values="0 0 0 0 0 0 0 0 0 0 0 0 0 0 0 0 0 0 127 0"/>
<feOffset dy="4"/>
<feGaussianBlur stdDeviation="2"/>
<feColorMatrix type="matrix" values="0 0 0 0 0 0 0 0 0 0 0 0 0 0 0 0 0 0 0.25 0"/>
<feBlend mode="normal" in2="BackgroundImageFix" result="effect1_dropShadow"/>
<feBlend mode="normal" in="SourceGraphic" in2="effect1_dropShadow" result="shape"/>
</filter>
<filter id="filter2_d" x="241" y="41" width="75" height="104" filterUnits="userSpaceOnUse" color-interpolation-filters="sRGB">
<feFlood flood-opacity="0" result="BackgroundImageFix"/>
<feColorMatrix in="SourceAlpha" type="matrix" values="0 0 0 0 0 0 0 0 0 0 0 0 0 0 0 0 0 0 127 0"/>
<feOffset dy="4"/>
<feGaussianBlur stdDeviation="2"/>
<feColorMatrix type="matrix" values="0 0 0 0 0 0 0 0 0 0 0 0 0 0 0 0 0 0 0.25 0"/>
<feBlend mode="normal" in2="BackgroundImageFix" result="effect1_dropShadow"/>
<feBlend mode="normal" in="SourceGraphic" in2="effect1_dropShadow" result="shape"/>
</filter>
<filter id="filter3_dd" x="533" y="20" width="105" height="147" filterUnits="userSpaceOnUse" color-interpolation-filters="sRGB">
<feFlood flood-opacity="0" result="BackgroundImageFix"/>
<feColorMatrix in="SourceAlpha" type="matrix" values="0 0 0 0 0 0 0 0 0 0 0 0 0 0 0 0 0 0 127 0"/>
<feOffset dy="4"/>
<feGaussianBlur stdDeviation="2"/>
<feColorMatrix type="matrix" values="0 0 0 0 0 0 0 0 0 0 0 0 0 0 0 0 0 0 0.25 0"/>
<feBlend mode="normal" in2="BackgroundImageFix" result="effect1_dropShadow"/>
<feColorMatrix in="SourceAlpha" type="matrix" values="0 0 0 0 0 0 0 0 0 0 0 0 0 0 0 0 0 0 127 0"/>
<feOffset dy="4"/>
<feGaussianBlur stdDeviation="2"/>
<feColorMatrix type="matrix" values="0 0 0 0 0 0 0 0 0 0 0 0 0 0 0 0 0 0 0.25 0"/>
<feBlend mode="normal" in2="effect1_dropShadow" result="effect2_dropShadow"/>
<feBlend mode="normal" in="SourceGraphic" in2="effect2_dropShadow" result="shape"/>
</filter>
<filter id="filter4_d" x="368" y="61.9938" width="113.863" height="73.6052" filterUnits="userSpaceOnUse" color-interpolation-filters="sRGB">
<feFlood flood-opacity="0" result="BackgroundImageFix"/>
<feColorMatrix in="SourceAlpha" type="matrix" values="0 0 0 0 0 0 0 0 0 0 0 0 0 0 0 0 0 0 127 0"/>
<feOffset dy="4"/>
<feGaussianBlur stdDeviation="2"/>
<feColorMatrix type="matrix" values="0 0 0 0 0 0 0 0 0 0 0 0 0 0 0 0 0 0 0.25 0"/>
<feBlend mode="normal" in2="BackgroundImageFix" result="effect1_dropShadow"/>
<feBlend mode="normal" in="SourceGraphic" in2="effect1_dropShadow" result="shape"/>
</filter>
<linearGradient id="paint0_linear" x1="477" y1="95" x2="373" y2="95" gradientUnits="userSpaceOnUse">
<stop stop-color="white"/>
<stop offset="1" stop-color="#FCFCFC"/>
</linearGradient>
</defs>
</svg>
